<?xml version="1.0" encoding="UTF-8"?>
<svg version="1.1" xmlns="http://www.w3.org/2000/svg" width="415" height="456">
<path d="M0 0 C136.95 0 273.9 0 415 0 C415 150.48 415 300.96 415 456 C278.05 456 141.1 456 0 456 C0 305.52 0 155.04 0 0 Z " fill="#FDFDFF" transform="translate(0,0)"/>
<path d="M0 0 C56.1 0 112.2 0 170 0 C170 150.48 170 300.96 170 456 C113.9 456 57.8 456 0 456 C0 437.04312309 1.06630677 423.20796878 8.625 405.9375 C13.24324035 395.06859309 14.4470378 384.0613552 14.38768005 372.35159302 C14.39306559 371.05235047 14.39845113 369.75310793 14.40399987 368.4144944 C14.41831001 364.85124067 14.41425566 361.28822107 14.40683305 357.72495532 C14.40206747 353.86526053 14.41464092 350.00561396 14.42485046 346.14593506 C14.44197781 338.60123838 14.44289115 331.05662521 14.43763756 323.51191415 C14.43358333 317.37488646 14.43505423 311.23788331 14.44038582 305.10085678 C14.44113424 304.22480833 14.44188266 303.34875988 14.44265376 302.44616451 C14.44418536 300.66603168 14.44572371 298.88589886 14.44726873 297.10576604 C14.46097179 280.44160798 14.45557151 263.77749697 14.44408352 247.11334001 C14.43415311 231.8963225 14.4470924 216.67942662 14.47101771 201.46242787 C14.49544925 185.80444294 14.50500665 170.14651456 14.49836498 154.48851097 C14.49488181 145.71099489 14.49704505 136.93357229 14.51461601 128.15607071 C14.52938881 120.68427427 14.52990745 113.21263715 14.5125451 105.74084367 C14.50407435 101.93521369 14.5017883 98.12986772 14.51719666 94.32425308 C14.74973229 72.82447402 14.74973229 72.82447402 10 52 C9.57798136 50.80242663 9.57798136 50.80242663 9.1474371 49.58065987 C8.46126683 47.79553578 7.6753683 46.04942493 6.875 44.3125 C6.37742188 43.21550781 5.87984375 42.11851563 5.3671875 40.98828125 C4.54843068 39.19871278 3.72462019 37.41142414 2.890625 35.62890625 C1.66832398 32.02097384 1.2706058 28.39298315 0.875 24.625 C0.78863281 23.91472656 0.70226562 23.20445313 0.61328125 22.47265625 C-0.21747797 14.89033006 0 7.76688033 0 0 Z " fill="#FEFEFF" transform="translate(245,0)"/>
<path d="M0 0 C25.08 0 50.16 0 76 0 C76.99 12.87 76.99 12.87 78 26 C79.37049428 32.16722428 80.55367424 36.80245132 82.9375 42.4375 C85.32548904 48.207511 87.41444081 53.95747258 89 60 C89.33769724 61.10387589 89.67539448 62.20775179 90.02332497 63.34507847 C91.4600376 69.15278471 91.28275229 74.96986842 91.26742554 80.92015076 C91.27195665 82.21356119 91.27648776 83.50697162 91.28115618 84.8395763 C91.2933463 88.41440745 91.29313043 91.98914473 91.29076743 95.5639919 C91.29035823 99.42584943 91.30140851 103.28767728 91.31088257 107.14952087 C91.32747356 114.71139966 91.33299133 122.27324726 91.33410732 129.83514272 C91.33505906 135.98708006 91.33917565 142.13900715 91.34550858 148.29094124 C91.36311875 165.75489902 91.37234824 183.21883225 91.37084763 200.68279897 C91.37076772 201.62367404 91.3706878 202.56454911 91.37060547 203.53393555 C91.37052371 204.47596775 91.37044195 205.41799996 91.37035771 206.3885786 C91.36954572 221.63763036 91.38866198 236.88658313 91.4168822 252.13560628 C91.44566814 267.81487073 91.45941924 283.494087 91.45769465 299.17337853 C91.45703253 307.96723076 91.46244579 316.76097933 91.48405075 325.55480766 C91.50233824 333.04610965 91.50654848 340.53726103 91.4930319 348.02857577 C91.48653908 351.84441996 91.48624967 355.65997586 91.5037384 359.47579193 C91.58335968 377.99908799 91.21595881 394.98591304 83.375 412.125 C82.77500367 413.48016412 82.17859415 414.83692247 81.5859375 416.1953125 C81.3286084 416.76266113 81.0712793 417.33000977 80.80615234 417.91455078 C75.80719768 430.84643167 77.07984671 440.34222277 76 456 C50.92 456 25.84 456 0 456 C0 454.68 0 453.36 0 452 C-0.66 452 -1.32 452 -2 452 C-2.03738281 450.79085938 -2.07476562 449.58171875 -2.11328125 448.3359375 C-2.6742461 433.19610218 -5.09631766 420.24018243 -11.13110352 406.27758789 C-11.47069092 405.47957764 -11.81027832 404.68156738 -12.16015625 403.859375 C-12.61853882 402.81475098 -12.61853882 402.81475098 -13.08618164 401.74902344 C-15.95700498 393.11277689 -16.28872621 384.6618333 -16.26069641 375.62260437 C-16.26452196 374.30424506 -16.26834751 372.98588576 -16.27228898 371.62757617 C-16.28252185 367.99252896 -16.28039926 364.35758089 -16.27610838 360.72252572 C-16.27363254 356.79261675 -16.28266597 352.86273112 -16.29014587 348.93283081 C-16.30287133 341.2428892 -16.30468924 333.55298255 -16.30234561 325.86303218 C-16.3005598 319.60956423 -16.30231774 313.35610685 -16.30657005 307.10264015 C-16.30716524 306.21130677 -16.30776043 305.31997338 -16.30837366 304.4016299 C-16.30958546 302.59064874 -16.31079959 300.77966759 -16.31201603 298.96868644 C-16.32288338 281.99895833 -16.32073296 265.0292501 -16.31463119 248.05952088 C-16.30946337 232.55248365 -16.32071535 217.04550927 -16.33972941 201.53848448 C-16.35912556 185.59701424 -16.36736065 169.65557371 -16.36360615 153.7140916 C-16.36169673 144.77174709 -16.36415639 135.82945605 -16.37832069 126.8871212 C-16.39025817 119.27390021 -16.39161294 111.6607656 -16.37953053 104.04754337 C-16.37365828 100.16742165 -16.37249629 96.28745776 -16.38453293 92.40734673 C-16.39544761 88.847368 -16.39222286 85.2876778 -16.37827124 81.72771225 C-16.37440393 79.84691963 -16.38512566 77.96611391 -16.39656812 76.08535212 C-16.32295143 64.39038056 -13.86093885 54.06471303 -8.9375 43.5 C-2.9876443 29.96310696 -2.58553182 16.59206931 -2 2 C-1.34 2 -0.68 2 0 2 C0 1.34 0 0.68 0 0 Z " fill="#FAFBFF" transform="translate(169,0)"/>
<path d="M0 0 C0.33 0 0.66 0 1 0 C1.04374756 0.82387207 1.08749512 1.64774414 1.13256836 2.49658203 C2.10060394 18.89503632 3.62264224 33.01071347 10.84375 48.0078125 C15.50922955 58.11112638 16.44330578 68.5272467 16.38768005 79.52142334 C16.39306559 80.81910589 16.39845113 82.11678845 16.40399987 83.45379472 C16.41832794 87.01737703 16.41424986 90.58072559 16.40683305 94.14432001 C16.40207192 98.00268825 16.41463718 101.86100803 16.42485046 105.71936035 C16.44198743 113.26386123 16.44288899 120.80827863 16.43763756 128.3527939 C16.4335845 134.49031365 16.43505286 140.62780886 16.44038582 146.76532745 C16.44113424 147.64122267 16.44188266 148.51711789 16.44265376 149.41955538 C16.44418536 151.19936401 16.44572371 152.97917264 16.44726873 154.75898126 C16.46097572 171.42507276 16.45556913 188.09111724 16.44408352 204.75720766 C16.43415662 219.9736132 16.44708563 235.18989705 16.47101771 250.40628383 C16.49545528 266.06311192 16.50500494 281.71988344 16.49836498 297.3767302 C16.49488263 306.15373413 16.4970393 314.93064456 16.51461601 323.70763397 C16.52939655 331.18052398 16.52989768 338.65325468 16.5125451 346.12614176 C16.5040799 349.93188866 16.50177431 353.7373517 16.51719666 357.54308319 C16.58682816 376.03972239 16.20445008 393.0110693 8.375 410.125 C4.26063201 419.41779666 2.57933259 427.7824096 1.875 437.9375 C1.78863281 439.09830078 1.70226562 440.25910156 1.61328125 441.45507812 C1.40232597 444.30297446 1.19809534 447.15118513 1 450 C0.67 450 0.34 450 0 450 C-0.06993164 449.28046143 -0.13986328 448.56092285 -0.21191406 447.81958008 C-1.92248612 430.64098141 -4.3699066 416.21439918 -11.6328125 400.484375 C-14.98342375 391.94510289 -15.29045937 383.82119003 -15.26742554 374.71162415 C-15.27116756 373.37739642 -15.27577127 372.04317089 -15.28115618 370.70894879 C-15.29333354 367.06217618 -15.29313197 363.41549567 -15.29076743 359.76870739 C-15.29035792 355.82785146 -15.30141119 351.88702453 -15.31088257 347.94618225 C-15.32746487 340.23237695 -15.33299087 332.51860222 -15.33410732 324.80478058 C-15.33505916 318.53127395 -15.33917622 312.25777736 -15.34550858 305.98427391 C-15.3631138 288.17900222 -15.37234863 270.3737546 -15.37084763 252.56847415 C-15.37076772 251.60945434 -15.3706878 250.65043453 -15.37060547 249.66235352 C-15.37052371 248.70215619 -15.37044195 247.74195886 -15.37035771 246.75266465 C-15.36954512 231.19772392 -15.38867779 215.64288009 -15.4168822 200.08796737 C-15.44564568 184.09793248 -15.45942058 168.10794479 -15.45769465 152.11788338 C-15.45703192 143.14808475 -15.46247269 134.1783877 -15.48405075 125.20861244 C-15.50230823 117.57049261 -15.50657256 109.93252041 -15.4930319 102.29438815 C-15.48652507 98.40195067 -15.48630163 94.50979602 -15.5037384 90.61738586 C-15.51957649 87.0449073 -15.51649778 83.47293329 -15.49917014 79.90046623 C-15.49469494 78.01538501 -15.50967295 76.13028746 -15.52564943 74.24526864 C-15.44120199 63.67790232 -13.08956391 54.08807493 -8.5 44.5625 C-1.80237823 30.30171764 -0.94721374 15.49618569 0 0 Z " fill="#6171FF" transform="translate(244,2)"/>
<path d="M0 0 C0.66 0 1.32 0 2 0 C2.14695313 1.95679688 2.14695313 1.95679688 2.296875 3.953125 C3.46102563 18.08266485 6.54673511 29.32159547 12.6328125 42.1875 C16.35570244 51.44795622 16.2902811 61.73485606 16.25396729 71.55543518 C16.25708727 72.86874736 16.26020725 74.18205954 16.26342177 75.53516906 C16.2717044 79.14676082 16.26767457 82.75824571 16.26144934 86.36983764 C16.2568989 90.27785616 16.26392136 94.18585711 16.26940918 98.09387207 C16.27827705 105.73608221 16.27639289 113.37825295 16.2705839 121.02046461 C16.26605746 127.23385547 16.26545875 133.44723533 16.26763153 139.66062737 C16.267938 140.54671649 16.26824446 141.43280562 16.26856022 142.34574593 C16.2691997 144.14610148 16.26984813 145.94645703 16.2705054 147.74681257 C16.27620097 164.60680573 16.26966277 181.46677709 16.25890467 198.32676666 C16.24996831 212.77897188 16.2515234 227.23114497 16.26074219 241.68334961 C16.27145581 258.48673577 16.27565335 275.29010287 16.26951766 292.09349197 C16.26888059 293.88672411 16.26825185 295.67995625 16.26763153 297.4731884 C16.26732298 298.35538011 16.26701443 299.23757182 16.26669653 300.14649661 C16.26497298 306.34962284 16.26787731 312.55273693 16.27259064 318.75586128 C16.27821154 326.31930499 16.27665756 333.88270721 16.26602915 341.4461462 C16.26078894 345.30169787 16.25868744 349.15718046 16.26532745 353.01273155 C16.27242788 357.19906346 16.26392439 361.38522239 16.25396729 365.57154846 C16.25842873 366.78031617 16.26289017 367.98908388 16.26748681 369.23448092 C16.21729418 380.13502757 14.68889425 389.32166405 10.0625 399.1875 C3.89440978 413.14271777 2.54269819 426.87930556 2 442 C1.34 442 0.68 442 0 442 C-0.03738281 440.79085938 -0.07476562 439.58171875 -0.11328125 438.3359375 C-0.6742461 423.19610218 -3.09631766 410.24018243 -9.13110352 396.27758789 C-9.47069092 395.47957764 -9.81027832 394.68156738 -10.16015625 393.859375 C-10.61853882 392.81475098 -10.61853882 392.81475098 -11.08618164 391.74902344 C-13.95700498 383.11277689 -14.28872621 374.6618333 -14.26069641 365.62260437 C-14.26452196 364.30424506 -14.26834751 362.98588576 -14.27228898 361.62757617 C-14.28252185 357.99252896 -14.28039926 354.35758089 -14.27610838 350.72252572 C-14.27363254 346.79261675 -14.28266597 342.86273112 -14.29014587 338.93283081 C-14.30287133 331.2428892 -14.30468924 323.55298255 -14.30234561 315.86303218 C-14.3005598 309.60956423 -14.30231774 303.35610685 -14.30657005 297.10264015 C-14.30716524 296.21130677 -14.30776043 295.31997338 -14.30837366 294.4016299 C-14.30958546 292.59064874 -14.31079959 290.77966759 -14.31201603 288.96868644 C-14.32288338 271.99895833 -14.32073296 255.0292501 -14.31463119 238.05952088 C-14.30946337 222.55248365 -14.32071535 207.04550927 -14.33972941 191.53848448 C-14.35912556 175.59701424 -14.36736065 159.65557371 -14.36360615 143.7140916 C-14.36169673 134.77174709 -14.36415639 125.82945605 -14.37832069 116.8871212 C-14.39025817 109.27390021 -14.39161294 101.6607656 -14.37953053 94.04754337 C-14.37365828 90.16742165 -14.37249629 86.28745776 -14.38453293 82.40734673 C-14.39544761 78.847368 -14.39222286 75.2876778 -14.37827124 71.72771225 C-14.37440393 69.84691963 -14.38512566 67.96611391 -14.39656812 66.08535212 C-14.32296402 54.39238058 -11.86398223 44.06212251 -6.9375 33.5 C-3.62821955 26.02449866 -1.63937875 19.20355453 -1 11 C-0.89300781 9.93136719 -0.78601563 8.86273438 -0.67578125 7.76171875 C-0.42276208 5.17566565 -0.19729466 2.59079044 0 0 Z " fill="#5F6FFF" transform="translate(167,10)"/>
<path d="M0 0 C0.33 0 0.66 0 1 0 C1.08636719 1.258125 1.17273438 2.51625 1.26171875 3.8125 C2.42232954 18.64268858 5.53228862 31.34718068 11.88671875 44.86328125 C15.08112582 53.86366329 15.29290996 63.05879841 15.27415466 72.51542664 C15.27861671 73.8499555 15.2839339 75.18448173 15.29002339 76.51900417 C15.30409756 80.15739221 15.30586871 83.7956944 15.30542648 87.43410575 C15.30708408 91.36951488 15.32016789 95.3048896 15.33161926 99.24028015 C15.35439406 107.83133774 15.36238147 116.42237051 15.36744571 125.0134542 C15.37071093 130.38484102 15.37723829 135.75622074 15.3844471 141.12760353 C15.40400176 156.0209044 15.42041309 170.9141987 15.42332363 185.80751324 C15.42360499 187.23490532 15.42360499 187.23490532 15.42389202 188.69113361 C15.42425826 190.61994255 15.42462196 192.54875148 15.42498314 194.47756042 C15.42516595 195.43492398 15.42534876 196.39228754 15.42553711 197.37866211 C15.42571766 198.33720381 15.42589821 199.29574551 15.42608423 200.28333393 C15.42962501 215.81095092 15.45664653 231.33842917 15.494035 246.86599805 C15.53217835 262.83576621 15.55148154 278.8054656 15.55178314 294.7752803 C15.55236629 303.73060901 15.5607661 312.68577208 15.58978081 321.64105797 C15.61437528 329.2666495 15.6215233 336.89201494 15.60653328 344.51763549 C15.59939768 348.40229576 15.60007547 352.28651029 15.62294388 356.17111969 C15.78802201 385.98397479 15.78802201 385.98397479 10 399 C9.53832145 400.07305232 9.07664289 401.14610464 8.60097408 402.2516737 C7.99411691 403.64303272 7.99411691 403.64303272 7.375 405.0625 C2.46259355 416.49388608 1.50552874 428.71042213 1 441 C0.34 441 -0.32 441 -1 441 C-1.02578125 439.88625 -1.0515625 438.7725 -1.078125 437.625 C-1.53634482 423.78217928 -3.56800712 411.4781187 -9.69632006 398.92435503 C-14.18890221 388.84680087 -15.58830343 379.00900282 -15.50793457 368.0723877 C-15.51255734 366.72971566 -15.51891939 365.38704872 -15.52684355 364.04439211 C-15.54337165 360.39739881 -15.53536705 356.7508301 -15.52289867 353.1038363 C-15.51378189 349.15419311 -15.52785048 345.20461876 -15.53881836 341.25498962 C-15.556538 333.53447162 -15.55279299 325.81410979 -15.5411678 318.09358585 C-15.53210781 311.81494617 -15.53092053 305.53635004 -15.53526306 299.25770569 C-15.53587599 298.36165226 -15.53648893 297.46559884 -15.53712043 296.54239228 C-15.53839943 294.72166899 -15.53969628 292.9009457 -15.5410108 291.08022243 C-15.55239739 274.03602382 -15.5393331 256.99191148 -15.51780933 239.94772702 C-15.4999401 225.34580479 -15.50304475 210.74400978 -15.52148438 196.14208984 C-15.5429251 179.15589351 -15.55129893 162.16977264 -15.53903532 145.18356466 C-15.53776122 143.36980789 -15.53650374 141.55605111 -15.53526306 139.74229431 C-15.53464596 138.85005827 -15.53402886 137.95782223 -15.53339306 137.03854874 C-15.52994975 130.77267464 -15.53574644 124.5068487 -15.54518127 118.24098206 C-15.55643829 110.5974779 -15.55328378 102.9541379 -15.5320583 95.31065238 C-15.52159743 91.41616644 -15.51734041 87.52195349 -15.53065491 83.62747002 C-15.54268879 80.05332282 -15.5358385 76.47969828 -15.5147447 72.90559763 C-15.50825188 71.01977463 -15.52111575 69.13391453 -15.53497362 67.24813128 C-15.43424608 56.13009664 -12.65356606 45.91078858 -7.9375 35.875 C-2.79767033 24.21004652 -1.26484967 12.55921318 0 0 Z " fill="#5F6FFF" transform="translate(206,8)"/>
<path d="M0 0 C0.33 0 0.66 0 1 0 C1.02916504 0.60247559 1.05833008 1.20495117 1.08837891 1.82568359 C1.98355955 18.49249207 4.96068474 32.62287813 12.057693 47.72697461 C15.47724503 55.97559065 16.44307232 64.38638686 16.39440918 73.23049927 C16.40354584 74.82553939 16.40354584 74.82553939 16.41286707 76.45280254 C16.42938321 79.98052825 16.42473748 83.50788848 16.41992188 87.03564453 C16.42726892 89.57960888 16.43585699 92.1235699 16.44558716 94.66752625 C16.46545037 100.84022551 16.47118726 107.01279254 16.46939927 113.18551941 C16.46808667 118.20940357 16.47192107 123.23325861 16.47932434 128.2571373 C16.48142377 129.70962393 16.48352137 131.16211056 16.48561716 132.6145972 C16.48666069 133.3377755 16.48770422 134.0609538 16.48877937 134.80604659 C16.50764551 148.45676888 16.50664306 162.10743733 16.49981004 175.75816725 C16.49424057 188.20955868 16.51504097 200.66074398 16.54817051 213.11208726 C16.5820171 225.93369244 16.59706203 238.7551992 16.59245348 251.57684982 C16.5902194 258.76047823 16.59529468 265.94391632 16.62034607 273.12750626 C16.64372829 279.88942716 16.64064413 286.65085218 16.62041855 293.41280556 C16.61702759 295.88214644 16.62201402 298.35151665 16.63640213 300.82081795 C16.73264922 318.57643823 14.92062348 333.39738114 7.12182617 349.52978516 C3.18684157 358.19445854 2.38717895 367.29756228 1.8125 376.6875 C1.73064453 377.87794922 1.64878906 379.06839844 1.56445312 380.29492188 C1.36638041 383.19610459 1.17841988 386.09755387 1 389 C0.67 389 0.34 389 0 389 C-0.04487549 388.37657715 -0.08975098 387.7531543 -0.13598633 387.11083984 C-1.32794298 370.99938594 -2.6811251 356.25141337 -9.39916992 341.38525391 C-13.66610671 331.77431241 -15.45253306 322.22078451 -15.38768005 311.74258423 C-15.39306559 310.67640189 -15.39845113 309.61021954 -15.40399987 308.51172864 C-15.41819335 304.97465787 -15.41119695 301.43796591 -15.40405273 297.90087891 C-15.4097608 295.35042523 -15.41672674 292.7999741 -15.42485046 290.24952698 C-15.44089351 284.06212152 -15.44289227 277.87485364 -15.43763756 271.68743373 C-15.43358221 266.65398159 -15.43505554 261.62055935 -15.44038582 256.58710861 C-15.44113424 255.86840733 -15.44188266 255.14970604 -15.44265376 254.40922593 C-15.44418538 252.94878757 -15.44572372 251.48834922 -15.44726873 250.02791087 C-15.46096994 236.3582299 -15.45557289 222.6886063 -15.44408352 209.01892667 C-15.43415397 196.53899456 -15.44709119 184.05921078 -15.47101771 171.57930155 C-15.49545527 158.73511771 -15.50500515 145.89100281 -15.49836498 133.0467962 C-15.49488304 125.84767808 -15.4970367 118.64867394 -15.51461601 111.44957352 C-15.53094796 104.67786384 -15.52608425 97.90648135 -15.50731087 91.13476372 C-15.50363625 88.6572964 -15.50670032 86.17980796 -15.51719666 83.70236015 C-15.61074257 59.78697325 -15.61074257 59.78697325 -11 48 C-10.72393638 47.24501032 -10.44787275 46.49002064 -10.16344357 45.71215248 C-9.46691414 43.87356742 -8.70530738 42.05997793 -7.9375 40.25 C-3.81489715 30.49572482 -1.54732828 21.47270694 -0.8125 10.875 C-0.73064453 9.823125 -0.64878906 8.77125 -0.56445312 7.6875 C-0.366486 5.12557254 -0.17851741 2.56334337 0 0 Z " fill="#6171FF" transform="translate(282,35)"/>
<path d="M0 0 C2.50648745 3.75973118 2.24485777 6.773502 2.3125 11.125 C2.76740532 23.75117829 6.31538449 34.89734761 11.79157972 46.22576308 C15.46334734 54.65524203 16.44382801 63.25547204 16.39440918 72.35784912 C16.40354584 73.97338192 16.40354584 73.97338192 16.41286707 75.62155175 C16.42938633 79.19540253 16.42473705 82.76889268 16.41992188 86.34277344 C16.42726865 88.91953905 16.43585664 91.49630137 16.44558716 94.07305908 C16.46655001 100.32528452 16.47118728 106.57741705 16.46939927 112.8296735 C16.46808695 117.91698051 16.47191967 123.00425876 16.47932434 128.09156036 C16.48142375 129.56205249 16.48352135 131.03254461 16.48561716 132.50303674 C16.48666069 133.23515517 16.48770422 133.9672736 16.48877937 134.72157744 C16.50764505 148.54058217 16.50664292 162.35953372 16.49981004 176.17854598 C16.49423801 188.7897173 16.51505201 201.40068526 16.54817051 214.01180908 C16.58199567 226.99386615 16.59706484 239.97582604 16.59245348 252.95792794 C16.59021759 260.23315343 16.59532201 267.50819103 16.62034607 274.7833786 C16.64369411 281.62899797 16.64066976 288.47418922 16.62041855 295.31981659 C16.61702231 297.82224865 16.62203719 300.32470953 16.63640213 302.82710266 C16.70933245 316.48126059 16.26050868 328.27012022 11 341 C10.72817492 341.66471927 10.45634985 342.32943854 10.17628765 343.01430082 C9.39323344 344.92820236 8.60314605 346.83922219 7.8125 348.75 C3.5922673 358.9920623 2.75744356 368.98251227 2.4284668 379.9465332 C2.28393359 383.77645482 2.17184192 385.74223712 0 389 C-0.03738281 387.73027344 -0.07476562 386.46054687 -0.11328125 385.15234375 C-0.67005409 369.3591197 -2.81928609 355.76234491 -9.13110352 341.2265625 C-9.47069092 340.43378906 -9.81027832 339.64101563 -10.16015625 338.82421875 C-10.46574463 338.13416748 -10.77133301 337.44411621 -11.08618164 336.7331543 C-13.72213735 328.84923119 -14.29318601 321.08449399 -14.26742554 312.82450867 C-14.27195665 311.7429954 -14.27648776 310.66148213 -14.28115618 309.54719573 C-14.29375169 305.94637727 -14.29218294 302.34571101 -14.29052734 298.74487305 C-14.29651556 296.15368456 -14.30332178 293.56249785 -14.31088257 290.97131348 C-14.32743733 284.67705591 -14.33298958 278.38283581 -14.33410732 272.08855828 C-14.3350603 266.96876565 -14.33918299 261.84898529 -14.34550858 256.72919655 C-14.36310484 242.18968039 -14.37234982 227.65019366 -14.37084763 213.11066677 C-14.37076772 212.32818238 -14.3706878 211.54569799 -14.37060547 210.73950195 C-14.37052371 209.95605409 -14.37044195 209.17260623 -14.37035771 208.36541752 C-14.36954496 195.67129339 -14.38868401 182.97728795 -14.4168822 170.28319814 C-14.44565754 157.22551705 -14.45941999 144.16789378 -14.45769465 131.1101802 C-14.45703242 123.78865496 -14.46245139 116.46725422 -14.48405075 109.14575768 C-14.50424056 102.25837025 -14.50354152 95.37124917 -14.48901749 88.48384857 C-14.48693127 85.96241941 -14.49161901 83.44097373 -14.5037384 80.91957283 C-14.61299693 56.60577121 -14.61299693 56.60577121 -10 46 C-9.66980047 45.18110133 -9.33960094 44.36220266 -8.99939537 43.51848888 C-8.16407651 41.47191022 -7.27477856 39.45641848 -6.375 37.4375 C-1.18762673 25.22356904 -0.5901665 13.10790856 0 0 Z " fill="#5F6FFF" transform="translate(129,35)"/>
<path d="M0 0 C0.33 0 0.66 0 1 0 C1.03440186 0.63800537 1.06880371 1.27601074 1.10424805 1.93334961 C2.16586111 20.26386848 5.43021484 35.63216111 12.66796875 52.4375 C15.28627327 59.44012088 16.29829947 66.15771327 16.27415466 73.60536194 C16.28200968 74.83115413 16.28200968 74.83115413 16.29002339 76.0817098 C16.30491155 78.79418878 16.30572606 81.50647726 16.30639648 84.21899414 C16.31402564 86.17463495 16.32245443 88.13027277 16.33161926 90.08590698 C16.35349983 95.38173985 16.3623548 100.677515 16.36744571 105.97338796 C16.37109771 109.28875292 16.37734222 112.60410296 16.3844471 115.9194622 C16.40892179 127.50515273 16.42198866 139.09079863 16.42553711 150.67651367 C16.42916809 161.44365318 16.45903734 172.2105069 16.50094169 182.97755915 C16.53574025 192.24671362 16.55108722 201.51577383 16.55178314 210.78499311 C16.55257286 216.30979048 16.56117041 221.8342966 16.58978081 227.35902596 C16.61612488 232.56225729 16.61807612 237.7649593 16.60212517 242.96822739 C16.60032346 244.86595638 16.60688425 246.76371697 16.62294388 248.66137886 C16.71849519 260.69664105 15.3305414 270.74266784 11 282 C10.69150336 282.81100694 10.38300673 283.62201387 10.06516171 284.45759678 C9.34918775 286.25685295 8.58379196 288.03625391 7.8125 289.8125 C2.755882 302.0507271 2.19432542 314.93346544 1 328 C0.67 328 0.34 328 0 328 C-0.03440186 327.35675781 -0.06880371 326.71351563 -0.10424805 326.05078125 C-1.08605029 308.97807748 -3.58463825 294.80366768 -10.7890625 279.234375 C-15.11587835 267.67758945 -15.43676533 256.86706397 -15.40405273 244.69995117 C-15.4097647 242.77180081 -15.41673214 240.84365382 -15.42485046 238.91551208 C-15.4427073 233.70872075 -15.4416274 228.50209863 -15.43590808 223.29528594 C-15.43280485 218.93433444 -15.43892137 214.57341491 -15.44494683 210.21246797 C-15.45896642 199.91627615 -15.45745264 189.62016735 -15.44604492 179.32397461 C-15.43457094 168.73457698 -15.44863325 158.14543283 -15.4754414 147.5560686 C-15.49766089 138.43463055 -15.50422159 129.31327169 -15.49836498 120.19180852 C-15.49500857 114.75713071 -15.4973223 109.32261525 -15.51461601 103.88796043 C-15.53018259 98.77337144 -15.52602271 93.65915525 -15.50731087 88.54458046 C-15.50365148 86.67869254 -15.50665506 84.8127764 -15.51719666 82.94691467 C-15.59148121 68.69930036 -13.67810724 56.49293421 -7.9375 43.3125 C-2.07216407 29.11346867 -1.02731878 15.20505564 0 0 Z " fill="#6171FF" transform="translate(91,63)"/>
<path d="M0 0 C0.33 0 0.66 0 1 0 C1.06731323 0.95084473 1.06731323 0.95084473 1.13598633 1.92089844 C2.27314672 17.51543171 3.98659181 31.15583385 10.39916992 45.51318359 C15.93297718 58.17370139 16.43545013 70.14749538 16.38818359 83.73071289 C16.39225527 85.70476063 16.39760048 87.67880609 16.40411377 89.65284729 C16.41772133 94.98334126 16.41251616 100.31365989 16.40297651 105.64415669 C16.39534686 111.23904829 16.40243457 116.83392552 16.40713501 122.42881775 C16.41258251 131.82081785 16.4054269 141.21274701 16.39111328 150.60473633 C16.37478399 161.4441121 16.38008142 172.28331858 16.3965925 183.12269026 C16.41023037 192.4512794 16.41211592 201.77981774 16.40427649 211.10841364 C16.39961324 216.67036267 16.39893804 222.23223226 16.40888596 227.7941761 C16.41758703 233.02361239 16.41147647 238.25283152 16.39420319 243.48224449 C16.3902553 245.3949612 16.3913431 247.30769635 16.39799118 249.22040558 C16.44198671 263.1702105 14.43962373 274.05506868 8.9375 286.9375 C4.35342365 298.09886402 2.81355464 308.30616755 2.42797852 320.3034668 C2.27892365 324.03156652 2.11822591 325.82266114 0 329 C-0.05160278 327.93640259 -0.05160278 327.93640259 -0.10424805 326.85131836 C-0.89597279 311.71034982 -2.26841368 298.92011272 -8.33203125 284.92578125 C-14.39059878 270.92335175 -15.44374852 258.05781429 -15.38818359 243.03955078 C-15.39225791 241.17184138 -15.39760459 239.30413439 -15.40411377 237.43643188 C-15.41769279 232.40322821 -15.41252742 227.37021076 -15.40297651 222.33700418 C-15.39532852 217.04342083 -15.4024399 211.74985236 -15.40713501 206.45626831 C-15.41257864 197.5679847 -15.40543861 188.6797761 -15.39111328 179.79150391 C-15.37479956 169.55202976 -15.38007167 159.31273498 -15.3965925 149.07326519 C-15.41025922 140.24561418 -15.41210149 131.4180168 -15.40427649 122.59035861 C-15.39962707 117.33400404 -15.39889899 112.07773343 -15.40888596 106.82138443 C-15.41762885 101.8750696 -15.41140169 96.92898319 -15.39420319 91.98269272 C-15.39027666 90.18011604 -15.3913055 88.37751973 -15.39799118 86.57495117 C-15.45073607 70.89372914 -13.76270453 56.79900227 -7.4375 42.25 C-2.66830178 31.20148587 -0.83529658 20.73689015 -0.375 8.75 C-0.31699219 7.47189453 -0.31699219 7.47189453 -0.2578125 6.16796875 C-0.16542105 4.11225908 -0.08173025 2.05616113 0 0 Z " fill="#6171FF" transform="translate(320,63)"/>
<path d="M0 0 C0.33 0 0.66 0 1 0 C1.02916504 0.69335449 1.05833008 1.38670898 1.08837891 2.10107422 C1.88039752 19.03012229 4.00632279 33.39653656 11.1875 48.8125 C16.21642874 59.6350023 16.44020159 71.09544535 16.36328125 82.78125 C16.36276076 84.36820475 16.36328575 85.95516014 16.36479187 87.54211426 C16.36470284 90.84669795 16.35441768 94.15103416 16.33618164 97.45556641 C16.31349726 101.65441486 16.31295815 105.85290305 16.31969929 110.05179596 C16.32306857 113.32239892 16.31635402 116.59292236 16.30657005 119.86351013 C16.30276857 121.4101876 16.3015484 122.95687399 16.3031559 124.5035553 C16.30555186 138.28452914 15.17127575 150.60195707 9.5 163.3125 C4.84132907 173.97683777 2.72347986 182.87165302 1.875 194.5 C1.78863281 195.60859375 1.70226562 196.7171875 1.61328125 197.859375 C1.40277926 200.57251181 1.19851016 203.28596394 1 206 C0.67 206 0.34 206 0 206 C-0.10957031 204.73027344 -0.21914063 203.46054687 -0.33203125 202.15234375 C-1.62749886 187.77447789 -2.96207534 174.10186691 -9.39916992 160.97949219 C-14.93770367 149.45787036 -15.46355399 137.83193004 -15.43359375 125.29296875 C-15.43816843 123.59727268 -15.44347777 121.90157846 -15.44947815 120.20588684 C-15.4583606 116.66834945 -15.45604307 113.13103838 -15.44604492 109.59350586 C-15.434576 105.10205189 -15.45475971 100.61138665 -15.48396206 96.12003613 C-15.50247696 92.62200612 -15.50200125 89.12415971 -15.49632454 85.62609291 C-15.49617311 83.97220061 -15.50206677 82.31829439 -15.51461601 80.66444969 C-15.60702677 66.49051163 -13.29832537 54.20046924 -7.375 41.1875 C-2.90755992 31.33795001 -1.70719088 21.59798411 -0.875 10.875 C-0.78863281 9.823125 -0.70226563 8.77125 -0.61328125 7.6875 C-0.4036527 5.12537327 -0.19931886 2.56294577 0 0 Z " fill="#6171FF" transform="translate(53,124)"/>
<path d="M0 0 C2.52305005 2.52305005 2.32337949 3.59029257 2.52734375 7.09375 C2.59759766 8.125 2.66785156 9.15625 2.74023438 10.21875 C2.86985883 12.37487949 2.99752276 14.53112791 3.12304688 16.6875 C3.8684071 27.53887054 7.00187762 36.57338153 11.48242188 46.390625 C16.43881837 57.83676942 16.30156707 69.97817204 16.265625 82.2265625 C16.26697608 83.86697446 16.26892028 85.50738602 16.27142334 87.14779663 C16.27435213 90.5650417 16.27014882 93.98218136 16.26074219 97.39941406 C16.2493308 101.7543861 16.25593209 106.10911198 16.26788712 110.46407509 C16.27515125 113.84434834 16.27279729 117.22456425 16.26763153 120.60483932 C16.26630854 122.20982264 16.26789472 123.81481137 16.27259064 125.41978836 C16.29906399 137.00336496 15.37456819 147.28509054 11.0625 158.125 C10.68448242 159.10146484 10.68448242 159.10146484 10.29882812 160.09765625 C9.26855704 162.75897031 8.23091899 165.41720445 7.1796875 168.0703125 C3.72314352 176.9730209 2.84214745 186.1070911 2.34375 195.6015625 C2 198 2 198 0 200 C-0.02578125 199.030625 -0.0515625 198.06125 -0.078125 197.0625 C-0.57758486 183.84179756 -2.88365217 172.01265094 -8.69641113 160.03462219 C-13.9882387 147.71578627 -14.60387093 135.35903455 -14.53125 122.17578125 C-14.53395473 120.41375007 -14.53784522 118.65172037 -14.54284668 116.88969421 C-14.54869109 113.22636473 -14.54034135 109.56342955 -14.52148438 105.90014648 C-14.49864667 101.24043971 -14.51188052 96.5816525 -14.53577423 91.92197895 C-14.55032702 88.29362738 -14.54558402 84.66548884 -14.53526306 81.03713036 C-14.53262451 79.32019118 -14.53576243 77.60323167 -14.54518127 75.8863163 C-14.60394208 62.17732428 -12.00386413 51.05550278 -6.375 38.5 C-1.06445555 26.04075315 -0.6083151 13.3669239 0 0 Z " fill="#6070FF" transform="translate(358,126)"/>
<path d="M0 0 C0.33 0 0.66 0 1 0 C1.0501123 0.77601563 1.10022461 1.55203125 1.15185547 2.3515625 C1.38538153 5.90158232 1.63009793 9.45074756 1.875 13 C1.95363281 14.22074219 2.03226563 15.44148437 2.11328125 16.69921875 C2.76561574 25.98244038 4.24497028 33.56382835 7.875 42.1875 C8.67416285 44.1670102 9.46463968 46.14982677 10.25390625 48.13330078 C10.91998631 49.79980869 11.59969929 51.46085284 12.28125 53.12109375 C18.91952208 71.35263385 14.95230968 90.33975848 7.56176758 107.5612793 C2.51411341 119.59280355 1.49203791 132.08824646 1 145 C-1.44423908 141.33364138 -1.28248271 138.49076722 -1.375 134.25 C-1.85309784 122.93220773 -4.76664217 112.74814845 -9.0625 102.3125 C-17.39307675 82.04879443 -16.64968209 64.5266511 -8.31274414 44.34179688 C-7.70846553 42.91330176 -7.09260252 41.48962455 -6.46264648 40.07226562 C-2.90648786 31.95182543 -1.72737057 24.12880744 -1.4375 15.3125 C-1.24471317 10.12366297 -0.99940844 5.11267623 0 0 Z " fill="#6272FF" transform="translate(15,153)"/>
<path d="M0 0 C0.33 0 0.66 0 1 0 C1.03440186 0.67877197 1.06880371 1.35754395 1.10424805 2.05688477 C1.83694452 15.47829383 2.77495644 27.50533062 8 40 C8.81935638 42.03839879 9.63176522 44.07949369 10.44433594 46.12060547 C11.202222 48.00613412 11.98317205 49.88234537 12.765625 51.7578125 C18.78586638 67.57047183 14.65459799 85.23777758 8.5234375 100.23046875 C3.4529863 112.71133714 1.93111409 124.65592391 1 138 C0.34 137.67 -0.32 137.34 -1 137 C-1.40613542 134.04874931 -1.70278639 131.15314579 -1.9375 128.1875 C-2.91762189 117.76353563 -4.72608837 108.68938015 -9 99.0625 C-16.48109784 82.03462805 -17.6021013 64.49078432 -11 47 C-9.81743202 44.09316721 -8.59824104 41.20241094 -7.375 38.3125 C-2.95368094 27.85706821 -1.78838015 18.21136122 -1.34033203 6.92797852 C-1.09937219 1.09937219 -1.09937219 1.09937219 0 0 Z " fill="#6271FF" transform="translate(397,157)"/>
<path d="M0 0 C0.33 0 0.66 0 1 0 C1.33 6.27 1.66 12.54 2 19 C1.01 19 0.02 19 -1 19 C-1.10349817 12.58311325 -0.74507544 6.37305598 0 0 Z " fill="#828EFF" transform="translate(53,124)"/>
<path d="M0 0 C0.33 0 0.66 0 1 0 C1.33 6.27 1.66 12.54 2 19 C1.01 18.67 0.02 18.34 -1 18 C-1.11269443 11.8894576 -0.89604368 6.04829486 0 0 Z " fill="#8793FF" transform="translate(244,2)"/>
<path d="M0 0 C0.33 0 0.66 0 1 0 C1.33 5.94 1.66 11.88 2 18 C1.01 18.33 0.02 18.66 -1 19 C-1.10349817 12.58311325 -0.74507544 6.37305598 0 0 Z " fill="#8692FF" transform="translate(91,63)"/>
<path d="M0 0 C0.33 0 0.66 0 1 0 C1.99250545 5.70690634 2.10477512 11.21408489 2 17 C1.01 17.33 0.02 17.66 -1 18 C-0.505 9.09 -0.505 9.09 0 0 Z " fill="#7785FF" transform="translate(282,35)"/>
</svg>
